<?xml version="1.0" standalone="no"?>
<!DOCTYPE svg PUBLIC "-//W3C//DTD SVG 20010904//EN"
 "http://www.w3.org/TR/2001/REC-SVG-20010904/DTD/svg10.dtd">
<svg version="1.0" xmlns="http://www.w3.org/2000/svg"
 width="100.000000pt" height="100.000000pt" viewBox="0 0 512.000000 404.000000"
 preserveAspectRatio="xMidYMid meet">

<g transform="translate(0.000000,404.000000) scale(0.100000,-0.100000)"
fill="#E25E3E" stroke="none">
<path d="M2871 3865 c-102 -147 -145 -281 -145 -455 0 -132 12 -195 59 -316
107 -272 354 -503 645 -604 150 -51 357 -64 515 -31 227 47 388 160 521 366
17 26 12 24 -38 -17 -78 -64 -129 -92 -223 -124 -195 -65 -492 -34 -723 76
-123 58 -220 130 -324 239 -197 206 -301 463 -284 706 6 91 23 172 45 213 23
43 3 21 -48 -53z"/>
<path d="M1944 3583 c-49 -70 -106 -161 -126 -203 -171 -338 -161 -769 27
-1155 190 -391 544 -699 978 -851 228 -79 561 -93 844 -34 301 63 574 224 750
443 73 91 143 202 178 282 l26 60 -32 -40 c-134 -166 -379 -326 -589 -385
-175 -48 -423 -64 -607 -39 -624 85 -1187 548 -1383 1138 -90 270 -92 562 -6
813 18 54 32 98 31 98 -1 0 -42 -57 -91 -127z"/>
<path d="M880 3233 c-63 -81 -132 -172 -153 -202 -94 -138 -180 -350 -212
-526 -26 -138 -31 -415 -11 -555 54 -366 203 -721 432 -1027 79 -104 287 -318
399 -408 265 -213 645 -403 920 -460 136 -28 327 -45 502 -45 503 0 927 147
1281 444 157 132 323 334 421 510 68 124 73 141 18 75 -172 -210 -473 -391
-787 -474 -358 -94 -836 -82 -1197 30 -435 136 -819 391 -1126 748 -62 72
-121 145 -132 163 -11 18 -50 81 -86 141 -84 137 -110 188 -166 332 -158 405
-176 872 -47 1244 20 56 42 114 50 129 8 16 13 28 12 28 -2 0 -55 -66 -118
-147z"/>
</g>
</svg>
