<?xml version="1.0" standalone="no"?>
<!DOCTYPE svg PUBLIC "-//W3C//DTD SVG 20010904//EN"
 "http://www.w3.org/TR/2001/REC-SVG-20010904/DTD/svg10.dtd">
<svg version="1.0" xmlns="http://www.w3.org/2000/svg"
 width="278.000000pt" height="304.000000pt" viewBox="0 0 278.000000 304.000000"
 preserveAspectRatio="xMidYMid meet">

<g transform="translate(0.000000,304.000000) scale(0.100000,-0.100000)"
fill="#E25E3E" stroke="none">
<path d="M1860 2990 c-36 -5 -92 -17 -125 -26 -65 -18 -102 -20 -274 -9 -130
9 -191 -1 -292 -47 l-65 -29 -91 25 c-144 41 -327 61 -424 47 -235 -35 -364
-139 -448 -362 -51 -134 -54 -421 -6 -649 94 -453 207 -800 318 -972 76 -119
131 -160 213 -162 46 0 59 4 95 33 34 28 45 32 58 23 99 -71 307 -104 408 -66
24 9 45 15 48 13 2 -3 9 -97 15 -209 11 -226 30 -330 74 -404 39 -66 105 -111
194 -133 70 -16 78 -16 160 0 163 33 275 106 325 210 35 72 52 159 77 392 13
110 24 206 26 213 2 8 29 12 87 12 215 0 351 69 421 213 36 73 42 116 22 156
-27 51 -50 56 -170 37 -191 -29 -191 -30 -123 105 69 138 85 178 145 344 99
276 149 540 140 741 -6 126 -30 181 -120 275 -101 105 -214 172 -350 208 -89
24 -245 34 -338 21z m310 -105 c141 -34 288 -130 374 -246 63 -86 72 -307 21
-549 -49 -230 -166 -544 -280 -751 -25 -46 -44 -88 -41 -95 11 -27 109 -27
278 2 52 9 88 -15 88 -59 0 -119 -236 -239 -442 -225 -56 4 -68 3 -73 -11 -2
-9 -11 -79 -20 -156 -38 -350 -56 -434 -109 -514 -60 -89 -182 -145 -316 -146
-133 0 -212 60 -254 194 -27 84 -46 295 -46 504 0 53 -3 97 -6 97 -3 0 -21
-12 -39 -26 -40 -30 -141 -64 -191 -64 -19 0 -64 7 -100 16 -161 41 -180 166
-31 204 104 27 138 42 162 74 31 41 32 56 3 56 -13 0 -43 9 -67 21 -53 23 -34
38 -175 -139 -114 -145 -139 -168 -188 -183 -180 -51 -366 314 -497 979 -46
232 -56 349 -43 484 20 189 57 292 140 380 137 146 417 177 721 79 l92 -29 55
33 c31 19 82 40 113 46 65 15 224 15 293 1 38 -7 62 -5 115 9 38 11 95 23 128
29 79 12 253 4 335 -15z"/>
<path d="M1850 2813 c-55 -7 -55 -17 4 -56 161 -107 308 -303 371 -496 18 -55
18 -78 -1 -331 -4 -47 -1 -146 6 -225 11 -125 11 -149 -4 -224 -10 -47 -24
-94 -32 -105 -8 -11 -14 -25 -14 -30 0 -33 116 195 173 339 111 285 160 495
161 695 1 152 -8 173 -115 274 -75 71 -153 115 -251 142 -55 15 -237 26 -298
17z"/>
<path d="M1320 2772 c-36 -9 -86 -29 -111 -44 -93 -54 -180 -180 -227 -328
-21 -64 -52 -236 -45 -244 2 -2 34 9 71 25 55 23 82 29 148 29 68 0 86 -4 115
-23 64 -43 88 -91 110 -223 35 -219 23 -336 -60 -557 -48 -125 -50 -147 -19
-147 34 0 86 -41 108 -86 18 -36 20 -61 20 -235 0 -259 16 -506 36 -566 45
-135 139 -180 284 -137 100 30 155 78 185 163 20 58 56 332 85 658 10 117 18
136 67 179 l36 32 -41 66 c-23 36 -42 67 -42 70 0 2 -25 57 -56 121 -86 181
-123 280 -140 377 -38 204 39 317 224 326 39 2 72 8 72 12 0 14 -41 99 -82
172 -27 48 -75 106 -137 168 -79 78 -111 103 -181 137 -140 69 -292 88 -420
55z"/>
<path d="M573 2770 c-153 -32 -253 -139 -298 -315 -24 -95 -25 -306 -1 -435
114 -625 276 -1040 405 -1040 40 0 69 27 193 187 l87 111 -44 67 c-79 117 -80
122 -71 575 4 235 9 303 26 385 30 148 74 259 137 348 19 27 32 55 30 62 -15
37 -357 78 -464 55z"/>
<path d="M2030 2131 c-48 -10 -77 -27 -96 -57 -31 -46 -8 -201 49 -338 33 -80
136 -287 144 -288 21 -4 28 165 14 322 -5 49 -4 141 2 217 6 73 9 135 6 137
-10 10 -85 14 -119 7z m55 -35 c18 -13 18 -15 1 -40 -9 -15 -28 -32 -42 -38
-20 -10 -29 -8 -52 9 -37 28 -39 49 -5 67 35 19 74 20 98 2z"/>
<path d="M1045 2095 c-104 -43 -110 -50 -111 -141 -1 -43 -4 -151 -8 -240 -6
-149 -5 -166 15 -228 27 -82 84 -150 154 -182 81 -38 87 -36 117 54 14 42 40
117 58 167 39 109 49 235 31 395 -14 115 -36 170 -76 188 -41 19 -115 14 -180
-13z m178 -16 c42 -22 48 -48 17 -79 -30 -30 -73 -26 -104 11 -30 36 -31 42
-10 63 18 19 66 21 97 5z"/>
<path d="M2153 1169 c-27 -10 -43 -39 -43 -77 0 -28 3 -31 48 -37 72 -9 187
11 259 47 71 35 82 53 26 42 -72 -15 -175 -8 -223 13 -31 13 -53 17 -67 12z"/>
<path d="M1275 1162 c-6 -4 -29 -31 -52 -60 -58 -74 -79 -88 -163 -111 -40
-11 -75 -23 -77 -25 -9 -9 73 -26 126 -26 74 0 124 17 172 58 52 45 70 85 57
124 -6 16 -18 33 -28 38 -22 12 -22 12 -35 2z"/>
</g>
</svg>
