<?xml version="1.0" standalone="no"?>
<!DOCTYPE svg PUBLIC "-//W3C//DTD SVG 20010904//EN"
 "http://www.w3.org/TR/2001/REC-SVG-20010904/DTD/svg10.dtd">
<svg version="1.0" xmlns="http://www.w3.org/2000/svg"
 width="100.000000pt" height="100.000000pt" viewBox="0 0 500.000000 500.000000"
 preserveAspectRatio="xMidYMid meet">

<g transform="translate(0.000000,500.000000) scale(0.100000,-0.100000)"
fill="#E25E3E" stroke="none">
<path d="M212 4251 c-106 -37 -182 -125 -201 -234 -15 -88 -16 -2439 0 -2523
21 -116 71 -178 187 -232 l57 -27 597 0 598 0 0 -172 0 -173 -160 0 -160 0 0
-80 0 -80 645 0 645 0 0 80 0 80 -162 2 -163 3 0 169 0 168 243 -1 242 -2 0
85 0 86 -1143 0 -1143 0 -44 22 c-82 42 -85 51 -88 284 l-3 204 1210 0 1211 0
0 85 0 85 -1210 0 -1210 0 0 948 0 948 23 44 c15 30 35 50 62 64 40 21 46 21
1530 21 1489 0 1490 0 1530 -21 25 -13 47 -36 62 -64 22 -42 23 -52 23 -297
l0 -253 81 0 81 0 -4 273 c-5 309 -11 341 -78 419 -24 28 -64 58 -98 75 l-57
28 -1525 2 c-1457 2 -1527 2 -1578 -16z"/>
<path d="M2857 3296 c-50 -18 -76 -42 -98 -91 -18 -38 -19 -95 -19 -1190 0
-1100 1 -1152 19 -1191 10 -23 34 -52 52 -65 l34 -24 513 -3 512 -3 0 161 0
160 -485 0 -485 0 0 1010 0 1010 730 0 730 0 0 -285 0 -285 75 0 75 0 0 349
c0 345 0 348 -23 381 -12 19 -38 43 -57 54 -34 21 -48 21 -785 23 -615 2 -757
0 -788 -11z m828 -2352 c50 -54 18 -134 -54 -134 -74 0 -109 83 -56 135 33 34
78 33 110 -1z"/>
<path d="M4085 2331 c-52 -22 -50 9 -53 -770 -2 -399 0 -741 3 -759 12 -67 26
-72 202 -72 l156 0 -18 20 c-29 32 -25 88 9 116 37 32 71 30 107 -5 34 -35 37
-68 8 -105 l-20 -26 229 0 c127 0 238 3 247 6 45 18 45 19 45 803 l0 740 -24
28 -24 28 -424 2 c-232 1 -432 -2 -443 -6z m755 -716 l0 -565 -325 0 -325 0 0
565 0 565 325 0 325 0 0 -565z"/>
<path d="M1742 1730 c-13 -5 -30 -26 -38 -45 -13 -31 -13 -39 1 -66 40 -77
145 -51 145 37 0 58 -55 95 -108 74z"/>
</g>
</svg>
